A:\Common\BMMB\PROJECTS\STRATO\DataSTRATO\DataSTRATO\0021~016 ID\0021~aa~ID 016\W8_STRATO_ID_16.mot
version=1
nRows=18
nColumns=19
inDegrees=yes

BTS OpenSim export

endheader
time	r.gr_force_vx	r.gr_force_vy	r.gr_force_vz	r.gr_force_px	r.gr_force_py	r.gr_force_pz	l.gr_force_vx	l.gr_force_vy	l.gr_force_vz	l.gr_force_px	l.gr_force_py	l.gr_force_pz	r.gr_torque_x	r.gr_torque_y	r.gr_torque_z	l.gr_torque_x	l.gr_torque_y	l.gr_torque_z
5.960000	0.00000000	0.00000000	0.00000000	0.00000000	0.00000000	0.00000000	29.32336426	761.87939453	65.46189880	0.13267918	0.00010255	0.37395570	0.00000000	0.00000000	0.00000000	0.00014877	0.49000302	0.00008682
5.964000	0.00000000	0.00000000	0.00000000	0.00000000	0.00000000	0.00000000	29.50249672	769.10375977	63.39280319	0.13264476	0.00010272	0.37306094	0.00000000	0.00000000	0.00000000	0.00012717	0.41887635	0.00007422
5.968000	0.00000000	0.00000000	0.00000000	0.00000000	0.00000000	0.00000000	29.75066948	775.20178223	61.33600998	0.13259128	0.00010290	0.37213388	0.00000000	0.00000000	0.00000000	0.00010266	0.33814535	0.00005991
5.972000	0.00000000	0.00000000	0.00000000	0.00000000	0.00000000	0.00000000	30.04470444	780.07147217	59.28311157	0.13251731	0.00010310	0.37116298	0.00000000	0.00000000	0.00000000	0.00007776	0.25611717	0.00004538
5.976000	0.00000000	0.00000000	0.00000000	0.00000000	0.00000000	0.00000000	30.39089584	783.64703369	57.22988510	0.13242330	0.00010331	0.37013987	0.00000000	0.00000000	0.00000000	0.00005371	0.17691956	0.00003135
5.980000	0.00000000	0.00000000	0.00000000	0.00000000	0.00000000	0.00000000	30.80188179	785.92871094	55.19733047	0.13230994	0.00010353	0.36905143	0.00000000	0.00000000	0.00000000	0.00003044	0.10025306	0.00001776
5.984000	0.00000000	0.00000000	0.00000000	0.00000000	0.00000000	0.00000000	31.28607368	786.97357178	53.18333054	0.13218004	0.00010378	0.36788765	0.00000000	0.00000000	0.00000000	0.00000771	0.02540955	0.00000450
5.988000	0.00000000	0.00000000	0.00000000	0.00000000	0.00000000	0.00000000	31.84353447	786.86340332	51.20051575	0.13203572	0.00010404	0.36664417	0.00000000	0.00000000	0.00000000	-0.00001377	-0.04536526	-0.00000804
5.992000	0.00000000	0.00000000	0.00000000	0.00000000	0.00000000	0.00000000	32.45114136	785.69268799	49.23633957	0.13187815	0.00010433	0.36531818	0.00000000	0.00000000	0.00000000	-0.00003352	-0.11039209	-0.00001956
5.996000	0.00000000	0.00000000	0.00000000	0.00000000	0.00000000	0.00000000	33.08999252	783.56433105	47.27822876	0.13171045	0.00010463	0.36391237	0.00000000	0.00000000	0.00000000	-0.00004940	-0.16271088	-0.00002883
6.000000	0.00000000	0.00000000	0.00000000	0.00000000	0.00000000	0.00000000	33.74332428	780.60705566	45.33465958	0.13153388	0.00010494	0.36242574	0.00000000	0.00000000	0.00000000	-0.00006073	-0.20003435	-0.00003544
6.004000	0.00000000	0.00000000	0.00000000	0.00000000	0.00000000	0.00000000	34.40283203	776.95568848	43.43719482	0.13134937	0.00010528	0.36085775	0.00000000	0.00000000	0.00000000	-0.00006941	-0.22862500	-0.00004051
6.008000	0.00000000	0.00000000	0.00000000	0.00000000	0.00000000	0.00000000	35.05390549	772.74285889	41.61740494	0.13115753	0.00010563	0.35921171	0.00000000	0.00000000	0.00000000	-0.00007807	-0.25715271	-0.00004556
6.012000	0.00000000	0.00000000	0.00000000	0.00000000	0.00000000	0.00000000	35.67135239	768.09680176	39.86905670	0.13096239	0.00010599	0.35749906	0.00000000	0.00000000	0.00000000	-0.00008587	-0.28285113	-0.00005012
6.016000	0.00000000	0.00000000	0.00000000	0.00000000	0.00000000	0.00000000	36.22999573	763.12908936	38.19850540	0.13076261	0.00010637	0.35572383	0.00000000	0.00000000	0.00000000	-0.00009195	-0.30285919	-0.00005366
6.020000	0.00000000	0.00000000	0.00000000	0.00000000	0.00000000	0.00000000	36.70883179	757.94030762	36.59531021	0.13056074	0.00010675	0.35389334	0.00000000	0.00000000	0.00000000	-0.00009667	-0.31841820	-0.00005642
6.024000	0.00000000	0.00000000	0.00000000	0.00000000	0.00000000	0.00000000	37.09530258	752.62609863	35.06793213	0.13035955	0.00010714	0.35201463	0.00000000	0.00000000	0.00000000	-0.00009946	-0.32758936	-0.00005804
6.028000	0.00000000	0.00000000	0.00000000	0.00000000	0.00000000	0.00000000	37.39366150	747.27612305	33.62896729	0.13016087	0.00010755	0.35009134	0.00000000	0.00000000	0.00000000	-0.00010263	-0.33804297	-0.00005989
